<?xml version="1.0" encoding="iso-8859-1"?>
<!-- Generator: Adobe Illustrator 19.0.0, SVG Export Plug-In . SVG Version: 6.00 Build 0)  -->
<svg version="1.1" id="Capa_1" xmlns="http://www.w3.org/2000/svg" xmlns:xlink="http://www.w3.org/1999/xlink" x="0px" y="0px"
	 viewBox="0 0 448.138 448.138" style="enable-background:new 0 0 448.138 448.138;" xml:space="preserve">
<path d="M436.768,151.845c-13.152-26.976-35.744-42.08-57.6-56.704C362.88,84.229,347.52,73.925,336.64,59.173l-2.016-2.72
	c-6.4-8.608-13.696-18.368-14.816-26.56c-1.12-8.288-7.648-14.048-16.928-13.792C294.496,16.677,288,23.653,288,32.069v285.12
	c-13.408-8.128-29.92-13.12-48-13.12c-44.096,0-80,28.704-80,64s35.904,64,80,64c44.128,0,80-28.704,80-64V181.573
	c24.032,9.184,63.36,32.576,74.176,87.2c-2.016,2.976-3.936,6.208-6.176,8.736c-5.856,6.624-5.184,16.736,1.44,22.56
	c6.592,5.888,16.704,5.184,22.56-1.44c20.032-22.752,33.824-58.784,35.968-94.016C449.024,187.237,445.152,168.997,436.768,151.845z
	"/>
<path d="M16,48.069h192c8.832,0,16-7.168,16-16s-7.168-16-16-16H16c-8.832,0-16,7.168-16,16S7.168,48.069,16,48.069z"/>
<path d="M16,144.069h192c8.832,0,16-7.168,16-16s-7.168-16-16-16H16c-8.832,0-16,7.168-16,16S7.168,144.069,16,144.069z"/>
<path d="M112,208.069H16c-8.832,0-16,7.168-16,16s7.168,16,16,16h96c8.832,0,16-7.168,16-16S120.832,208.069,112,208.069z"/>
<path d="M112,304.069H16c-8.832,0-16,7.168-16,16s7.168,16,16,16h96c8.832,0,16-7.168,16-16S120.832,304.069,112,304.069z"/>
<g>
</g>
<g>
</g>
<g>
</g>
<g>
</g>
<g>
</g>
<g>
</g>
<g>
</g>
<g>
</g>
<g>
</g>
<g>
</g>
<g>
</g>
<g>
</g>
<g>
</g>
<g>
</g>
<g>
</g>
</svg>
